<svg xmlns="http://www.w3.org/2000/svg" width="24" height="24" shape-rendering="crispEdges" viewBox="0 0 24 24"><path fill="#16192e" d="M7,3 L9,3 L9,10 L19,10 L19,18 L16,21 L8,21 L5,18 L5,14 L7,14 Z" opacity=".3"/><rect width="3" height="2" x="5" y="1" fill="#16192e"/><rect width="2" height="10" x="4" y="2" fill="#16192e"/><rect width="2" height="7" x="7" y="2" fill="#16192e"/><rect width="3" height="2" x="1" y="9" fill="#16192e"/><rect width="2" height="4" x="0" y="10" fill="#16192e"/><rect width="3" height="2" x="1" y="13" fill="#16192e"/><rect width="2" height="4" x="3" y="11" fill="#16192e"/><rect width="3" height="2" x="8" y="7" fill="#16192e"/><rect width="3" height="2" x="11" y="8" fill="#16192e"/><rect width="3" height="2" x="14" y="9" fill="#16192e"/><rect width="2" height="8" x="16" y="10" fill="#16192e"/><rect width="12" height="2" x="4" y="17" fill="#16192e"/><rect width="10" height="3" x="5" y="19" fill="#16192e"/><rect width="2" height="9" x="5" y="3" fill="#fffdf0"/><rect width="3" height="2" x="2" y="11" fill="#fffdf0"/><rect width="11" height="7" x="5" y="10" fill="#fffdf0"/><rect width="3" height="2" x="8" y="9" fill="#fffdf0"/><rect width="3" height="2" x="11" y="10" fill="#fffdf0"/><rect width="2" height="2" x="14" y="11" fill="#fffdf0"/><rect width="1" height="3" x="8" y="11" fill="#16192e"/><rect width="1" height="3" x="11" y="12" fill="#16192e"/><rect width="1" height="2" x="14" y="13" fill="#16192e"/><rect width="8" height="2" x="6" y="18" fill="#ffd000"/><rect width="2" height="2" x="9" y="18" fill="#ff5e97"/></svg>